<svg width="134" height="18" viewBox="0 0 134 18" fill="none" xmlns="http://www.w3.org/2000/svg">
<path fill-rule="evenodd" clip-rule="evenodd" d="M123.95 0.744825C121.37 1.02859 119.576 1.8405 118.054 3.28451C115.303 5.89423 114.818 10.0173 116.848 13.3163C117.36 14.1489 118.78 15.5119 119.662 15.9829C121.141 16.7721 122.618 17.1801 124.352 17.2528C129.125 17.4532 132.803 15.0578 133.866 11.0305C134.105 10.1251 133.99 7.93019 133.732 6.96705C132.832 3.60208 129.881 1.29783 125.96 0.871809C125.205 0.789796 124.508 0.683502 123.95 0.744825ZM0 4.9353H12.73V16.9988H13.534C14.456 16.9435 14.941 16.7965 15.544 16.3639C16.08 15.9793 16.415 15.5385 16.75 14.8401C17.018 14.0147 17.0419 14.4585 17.018 8.99879V6.33213C16.991 6.07638 17.018 3.95863 17.018 3.79244C17.018 2.29676 15.5991 0.998793 14.07 0.998793C13.7163 0.945696 10.8766 0.999126 6.7 0.998793H0V4.9353ZM21.172 0.998793C21.172 6.33213 21.172 11.6655 21.172 16.9988H25.326V0.998793C23.9413 0.998793 22.5567 0.998793 21.172 0.998793ZM29.48 16.9988H33.634V11.2845H41.406V8.10991H33.634V4.30038H42.21V0.998793H29.48V16.9988ZM44.89 0.998801C44.89 0.998801 44.89 4.61901 44.89 8.99879V16.9988H57.486V15.348V13.6972H49.178V0.998793H47.168C46.0441 0.998793 44.89 0.998801 44.89 0.998801ZM60.032 0.998793C60.032 0.998793 60.032 4.61901 60.032 8.99879V16.9988H66.464H73.03V13.8242H64.32V10.3956H71.958V7.348C69.3673 7.348 66.7767 7.34803 64.186 7.34799V4.30038H72.896V0.998793H60.032ZM75.308 0.998793C75.3089 1.03378 76.0129 1.89812 76.782 2.90356C80.2086 7.38322 81.204 8.78863 81.204 8.87181C81.204 8.95216 78.2579 12.8358 78.122 12.9353C78.0241 13.0069 75.0209 16.8802 74.973 16.9988H77.452H79.864L81.74 14.4591C82.7759 13.0206 83.703 11.7785 83.75 11.7924C83.797 11.8063 84.5889 13.0369 85.626 14.4591L87.502 16.9988H89.914C91.344 17.0015 92.326 17.0454 92.326 16.9988C92.326 16.9559 90.9298 15.0163 89.244 12.8083C87.5581 10.6004 86.1613 8.79053 86.162 8.74483C86.1627 8.69912 87.5212 7.01132 89.11 4.9353C90.6987 2.85929 91.924 1.03727 91.924 0.998793C91.924 0.960404 91.02 0.986578 89.78 0.998793H87.502L85.76 3.41149C84.7846 4.73684 83.9403 5.82419 83.884 5.82419C83.8276 5.82419 82.8681 4.73684 81.874 3.41149L80.132 0.998793H77.72C76.4085 0.986662 75.307 0.963811 75.308 0.998793ZM94.202 8.99879V16.9988H96.212H98.088V12.6813C98.088 10.3277 98.1859 8.49061 98.222 8.49086C98.2581 8.49111 99.2793 10.0231 100.5 11.9194L102.644 15.348H103.716H104.654L106.932 11.7924C108.16 9.82952 109.173 8.23689 109.21 8.23689C109.247 8.23689 109.21 10.1322 109.21 12.5543V16.9988H111.22H113.23V8.99879L113.096 0.998793H111.488H109.746L109.478 1.37975C109.346 1.57784 108.048 3.64858 106.53 6.07816C105.012 8.50774 103.752 10.5329 103.716 10.5226C103.68 10.5123 102.289 8.3022 100.634 5.69721L97.686 0.998793H95.944H94.202V8.99879ZM126.228 4.30038C127.856 4.70255 129.084 6.02352 129.578 7.60197C130.281 9.84808 129.191 12.3757 127.166 13.3163C126.12 13.8023 124.797 14.0464 123.682 13.8242C121.911 13.4715 120.393 11.988 119.93 10.2686C119.76 9.63637 119.759 8.41655 119.93 7.72895C120.316 6.1751 121.53 4.95052 123.146 4.42736C123.733 4.23741 123.981 4.17489 124.754 4.1734C125.295 4.1724 125.934 4.22784 126.228 4.30038ZM0 16.9988H4.154V13.0623H0V16.9988Z" fill="#92211C"/>
</svg>
