<svg width="18" height="20" viewBox="0 0 18 20" fill="none" xmlns="http://www.w3.org/2000/svg">
<path d="M6.79515 17.5013C7.38276 18.0199 8.15463 18.3346 9 18.3346C9.84537 18.3346 10.6172 18.0199 11.2049 17.5013M14 6.66797C14 5.34189 13.4732 4.07012 12.5355 3.13243C11.5979 2.19475 10.3261 1.66797 9 1.66797C7.67392 1.66797 6.40215 2.19475 5.46447 3.13243C4.52678 4.07012 4 5.34189 4 6.66797C4 9.24312 3.35039 11.0063 2.62472 12.1725C2.0126 13.1562 1.70655 13.6481 1.71777 13.7853C1.7302 13.9372 1.76238 13.9951 1.88481 14.086C1.99538 14.168 2.49382 14.168 3.49071 14.168H14.5093C15.5062 14.168 16.0046 14.168 16.1152 14.086C16.2376 13.9951 16.2698 13.9372 16.2822 13.7853C16.2935 13.6481 15.9874 13.1562 15.3753 12.1725C14.6496 11.0063 14 9.24312 14 6.66797Z" stroke="#344054" stroke-width="1.66667" stroke-linecap="round" stroke-linejoin="round"/>
</svg>
