<svg width="24" height="25" viewBox="0 0 24 25" fill="none" xmlns="http://www.w3.org/2000/svg">
<path d="M21 12.168V9.46797C21 7.78781 21 6.94773 20.673 6.306C20.3854 5.74151 19.9265 5.28257 19.362 4.99495C18.7202 4.66797 17.8802 4.66797 16.2 4.66797H7.8C6.11984 4.66797 5.27976 4.66797 4.63803 4.99495C4.07354 5.28257 3.6146 5.74151 3.32698 6.306C3 6.94773 3 7.78781 3 9.46797V17.868C3 19.5481 3 20.3882 3.32698 21.0299C3.6146 21.5944 4.07354 22.0534 4.63803 22.341C5.27976 22.668 6.11984 22.668 7.8 22.668H12.5M21 10.668H3M16 2.66797V6.66797M8 2.66797V6.66797M18 21.668V15.668M15 18.668H21" stroke="#667085" stroke-width="2" stroke-linecap="round" stroke-linejoin="round"/>
</svg>
