<svg width="20" height="20" viewBox="0 0 20 20" fill="none" xmlns="http://www.w3.org/2000/svg">
<g clip-path="url(#clip0_1770_11398)">
<path d="M15 1.66797L18.3333 5.0013M1.66666 18.3346L2.73033 14.4345C2.79973 14.1801 2.83442 14.0528 2.88769 13.9342C2.93499 13.8289 2.9931 13.7287 3.06109 13.6354C3.13768 13.5303 3.23092 13.437 3.41742 13.2505L12.0286 4.63937C12.1936 4.47437 12.2761 4.39186 12.3712 4.36095C12.4549 4.33376 12.5451 4.33376 12.6288 4.36095C12.7239 4.39186 12.8064 4.47437 12.9714 4.63937L15.3619 7.0299C15.5269 7.19491 15.6094 7.27741 15.6403 7.37255C15.6675 7.45623 15.6675 7.54637 15.6403 7.63006C15.6094 7.7252 15.5269 7.8077 15.3619 7.97271L6.75075 16.5839C6.56426 16.7704 6.47101 16.8636 6.3659 16.9402C6.27257 17.0082 6.17243 17.0663 6.06709 17.1136C5.94845 17.1669 5.82123 17.2016 5.56678 17.271L1.66666 18.3346Z" stroke="#667085" stroke-width="1.66667" stroke-linecap="round" stroke-linejoin="round"/>
</g>
<defs>
<clipPath id="clip0_1770_11398">
<rect width="20" height="20" fill="white"/>
</clipPath>
</defs>
</svg>
